<svg width="96" height="20" viewBox="0 0 96 20" fill="none" xmlns="http://www.w3.org/2000/svg">
<path d="M18.2562 7.13032C18.2229 6.50501 18.0592 5.89335 17.7754 5.334C17.4917 4.77464 17.0941 4.27976 16.6078 3.88061C15.8874 3.28763 15.0379 2.86899 14.1264 2.65776C13.5853 2.52817 13.033 2.45013 12.477 2.42472C12.3446 2.40248 12.2105 2.39134 12.0763 2.39142C10.7946 2.39142 9.64658 2.36579 8.61799 2.31718C8.40724 2.30786 8.1985 2.2962 7.99245 2.28389C1.84139 1.74421 0.408415 0.565977 0.0865824 0.141827C0.0505427 0.0992487 0.0213387 0.051411 0 0C0.000951185 0.0337082 0.00567846 0.0672067 0.0140948 0.0998781C0.0465122 0.267186 0.0913811 0.431881 0.148332 0.592611C0.509093 1.65498 1.72561 3.81203 5.67821 4.59308C5.93259 4.64335 7.04306 4.8724 8.31596 5.02155C9.31166 5.13808 10.3107 5.22664 11.3047 5.35615C11.6152 5.39676 11.9256 5.44138 12.2323 5.50363C12.6204 5.58322 12.9818 5.75943 13.2824 6.01568C13.4726 6.18746 13.6251 6.39623 13.7305 6.62899C13.836 6.86175 13.892 7.11354 13.8952 7.3687C13.8995 7.45285 13.9361 7.53218 13.9975 7.59038C14.0589 7.64859 14.1405 7.68125 14.2254 7.68165H17.9337C17.9782 7.68163 18.0223 7.67271 18.0634 7.65542C18.1044 7.63813 18.1415 7.61282 18.1724 7.581C18.2033 7.54919 18.2275 7.51152 18.2435 7.47024C18.2594 7.42896 18.2668 7.38491 18.2652 7.34073C18.2619 7.24651 18.2589 7.16128 18.2562 7.13032Z" fill="#57606F"/>
<path d="M9.01354 6.57937C8.63711 6.47894 8.25542 6.39903 7.87018 6.34C5.87807 6.05476 3.96815 5.35925 2.26312 4.29815C2.25142 4.29113 2.2402 4.28335 2.22956 4.27484C2.01916 4.15685 1.82069 4.01905 1.6369 3.86334C1.6369 3.86334 1.91578 5.77635 3.94476 7.5129C4.11592 7.65939 4.29848 7.80588 4.49547 7.9477C4.72103 8.1146 4.9549 8.27017 5.19618 8.4138C7.04966 9.52478 10.1629 9.73653 12.202 10.2036C13.122 10.4031 14.0177 10.7002 14.8736 11.0899C14.876 11.0899 14.8783 11.0899 14.8807 11.0945C15.1408 11.2154 15.319 11.3129 15.4126 11.3689C15.4572 11.3968 15.4827 11.4132 15.4921 11.4178C15.478 11.3992 15.3891 11.2737 15.2237 11.0809C14.8918 10.6608 14.4976 10.2932 14.0545 9.99055C13.8847 9.88601 13.7088 9.79173 13.5276 9.70823C13.3423 9.62233 13.1527 9.54543 12.9604 9.47817C12.7681 9.41092 12.5644 9.345 12.3631 9.29207C12.2248 9.25478 12.0842 9.22016 11.9459 9.18753C11.8758 9.17122 11.8077 9.15424 11.7375 9.14092C11.0407 9.0247 10.3688 8.79201 9.7505 8.45276C8.68801 7.63475 9.71761 6.95192 9.01354 6.57937Z" fill="#57606F"/>
<path d="M16.6342 13.6035L16.6272 13.5875C16.5803 13.4922 16.5269 13.4002 16.4674 13.3122C16.3594 13.1422 16.2377 12.9811 16.1036 12.8304C15.9729 12.6841 15.8311 12.548 15.6795 12.4232C15.5282 12.2988 15.3686 12.1849 15.2016 12.0823C15.0322 11.9783 14.8568 11.8843 14.6764 11.8007C14.4918 11.7148 14.3029 11.6385 14.1109 11.5703C13.9139 11.5004 13.7139 11.4391 13.5119 11.3838C13.3048 11.3276 13.0961 11.2783 12.8867 11.234C12.6773 11.1897 12.4568 11.1488 12.241 11.1128C12.0252 11.0769 11.8024 11.0436 11.5822 11.013C11.3621 10.9823 11.1392 10.954 10.9174 10.9271C10.6956 10.9001 10.4744 10.8738 10.2529 10.8475C10.0314 10.8212 9.81466 10.7949 9.59585 10.7666C9.37704 10.7383 9.16663 10.7093 8.95252 10.6767C8.74445 10.6451 8.53672 10.6101 8.33 10.5705C8.25304 10.5558 8.17641 10.5404 8.10012 10.5242C7.07099 10.3192 6.06538 10.0116 5.09859 9.606C4.79413 9.48081 4.50032 9.33151 4.22001 9.15955C4.8629 10.3628 5.82562 11.3684 7.00374 12.0673C7.50351 12.3416 8.04032 12.5434 8.5978 12.6666C9.18542 12.8158 9.78244 12.9226 10.3784 13.0328C10.5674 13.0661 10.7563 13.1024 10.9449 13.1404C11.1526 13.1645 11.3548 13.2226 11.5433 13.3125C11.8149 13.4493 12.0418 13.6599 12.1975 13.9197C12.3531 14.1796 12.4312 14.4779 12.4225 14.78C12.4164 14.8518 12.4057 14.923 12.3907 14.9934C12.3382 15.2573 12.23 15.5072 12.0734 15.7268C11.9167 15.9463 11.715 16.1305 11.4815 16.2672C10.921 16.5895 10.2802 16.7482 9.63277 16.725C8.63695 16.725 7.92852 16.503 7.50746 16.0591C7.11715 15.6014 6.9166 15.0137 6.94635 14.4148C6.94583 14.3281 6.91091 14.2452 6.84917 14.1839C6.78743 14.1225 6.70383 14.0878 6.61647 14.0872L2.86892 14.0746C2.82407 14.0748 2.77972 14.084 2.7385 14.1015C2.69728 14.119 2.66002 14.1446 2.62893 14.1766C2.59783 14.2087 2.57353 14.2466 2.55745 14.2882C2.54138 14.3297 2.53386 14.374 2.53534 14.4185C2.53344 15.1421 2.69432 15.8571 3.00625 16.5113C3.31819 17.1654 3.77332 17.7423 4.33847 18.1999C4.99315 18.74 5.7511 19.1432 6.5668 19.3854C7.48085 19.665 8.4313 19.8099 9.38778 19.8156C10.6603 19.8495 11.9284 19.6525 13.1296 19.2343C14.1351 18.9019 15.0346 18.3126 15.7375 17.5257C16.198 16.9926 16.5198 16.3556 16.6748 15.6706C16.7294 15.436 16.7646 15.1974 16.7802 14.9572C16.7906 14.7967 16.794 14.6349 16.7886 14.4737C16.7848 14.322 16.7728 14.1705 16.7527 14.02C16.7324 13.8765 16.6925 13.7363 16.6342 13.6035Z" fill="#57606F"/>
<path d="M22.3383 17.0252C22.2715 16.9499 22.2226 16.8607 22.195 16.7642L21.3979 14.1547L20.2663 19.3894C20.2432 19.5078 20.1781 19.6141 20.0828 19.689C19.993 19.7691 19.8769 19.8141 19.7562 19.8155H17.6682C17.6149 19.8176 17.5619 19.8073 17.5134 19.7853C17.4649 19.7633 17.4222 19.7303 17.389 19.689C17.3549 19.6477 17.3308 19.5993 17.3184 19.5474C17.3059 19.4955 17.3055 19.4414 17.3171 19.3894L19.5169 9.17347C19.54 9.05502 19.6052 8.94872 19.7005 8.87383C19.7903 8.79355 19.9065 8.74845 20.0274 8.74699H21.9403C22.0329 8.74448 22.1252 8.76056 22.2114 8.79426C22.2795 8.82202 22.3417 8.86235 22.3946 8.91312C22.4376 8.95392 22.4727 9.00208 22.4983 9.05528C22.5194 9.10278 22.5353 9.14228 22.546 9.1738L23.9165 13.5545L27.1208 9.1738C27.2001 9.08399 27.2853 8.99946 27.3758 8.92077C27.5169 8.79979 27.6996 8.73743 27.8859 8.74665H30.2612C30.3145 8.74471 30.3674 8.75517 30.4159 8.7772C30.4643 8.79923 30.5069 8.83221 30.5401 8.8735C30.5741 8.91483 30.5982 8.96326 30.6106 9.01515C30.6231 9.06704 30.6235 9.12105 30.6119 9.17313L28.4115 19.3894C28.3884 19.5078 28.3234 19.6141 28.2282 19.689C28.1384 19.7692 28.0222 19.8142 27.9014 19.8155H25.814C25.7607 19.8177 25.7078 19.8073 25.6593 19.7853C25.6108 19.7634 25.5683 19.7303 25.5351 19.689C25.501 19.6477 25.4769 19.5993 25.4644 19.5474C25.452 19.4955 25.4516 19.4414 25.4633 19.3894L26.5949 14.1547L24.7458 16.7642C24.6647 16.8653 24.5709 16.9556 24.4666 17.0329C24.3494 17.1193 24.2062 17.164 24.0602 17.1597H22.6893C22.6243 17.1653 22.5589 17.1561 22.4981 17.1328C22.4373 17.1095 22.3826 17.0727 22.3383 17.0252Z" fill="#57606F"/>
<path d="M38.948 8.74575C39.031 8.73683 39.1149 8.74801 39.1926 8.77833C39.2703 8.80866 39.3394 8.85723 39.394 8.91987C39.4728 9.02248 39.5273 9.1414 39.5534 9.26778L40.8924 19.231C40.9457 19.621 40.8129 19.8159 40.4941 19.8159H38.5651C38.4891 19.8265 38.4117 19.82 38.3386 19.797C38.2655 19.7739 38.1985 19.7349 38.1426 19.6828C38.0799 19.6081 38.0386 19.518 38.0231 19.4221L37.8476 18.1097H33.6081L32.8909 19.4221C32.8347 19.5228 32.7588 19.6114 32.6678 19.6828C32.5292 19.7818 32.3598 19.829 32.1895 19.8159H29.9579C29.8091 19.8159 29.7187 19.7633 29.6867 19.6581C29.6632 19.5089 29.6973 19.3563 29.7823 19.231L35.3938 9.26778C35.4722 9.1345 35.5746 9.01659 35.6958 8.91987C35.844 8.80039 36.0309 8.73849 36.2217 8.74575H38.948ZM34.9629 15.6573H37.5452L37.067 11.862L34.9629 15.6573Z" fill="#57606F"/>
<path d="M49.0547 8.74567C49.6377 8.74097 50.2181 8.82369 50.7763 8.99104C51.2689 9.13407 51.7251 9.37955 52.1146 9.71116C52.4763 10.0292 52.7433 10.4394 52.8865 10.8974C53.0424 11.4276 53.0562 11.989 52.9264 12.5261C52.8008 13.2257 52.4869 13.8786 52.018 14.4158C51.5546 14.9037 50.9886 15.2844 50.3601 15.5307L51.5397 19.2928C51.5501 19.3504 51.5501 19.4094 51.5397 19.467C51.5178 19.563 51.4645 19.6491 51.3881 19.712C51.3164 19.7776 51.2227 19.8143 51.1253 19.8149H49.1168C49.0388 19.8248 48.9597 19.8172 48.8851 19.7926C48.8106 19.768 48.7426 19.727 48.6862 19.6727C48.6171 19.5875 48.5632 19.4912 48.5268 19.388L47.4922 16.0035H45.8662L45.1343 19.3894C45.1112 19.5078 45.0461 19.6141 44.9507 19.689C44.861 19.7692 44.7449 19.8141 44.6242 19.8155H42.5362C42.4829 19.8176 42.4298 19.8073 42.3813 19.7853C42.3328 19.7633 42.2902 19.7303 42.2569 19.689C42.2229 19.6477 42.1988 19.5993 42.1863 19.5474C42.1739 19.4955 42.1735 19.4415 42.1851 19.3894L44.3849 9.17348C44.408 9.05504 44.4732 8.94873 44.5685 8.87385C44.6583 8.79356 44.7745 8.74847 44.8954 8.747L49.0547 8.74567ZM46.3928 13.5398H48.1939C48.5966 13.5495 48.9957 13.4627 49.3574 13.2868C49.5277 13.1929 49.6739 13.0613 49.7845 12.9021C49.8951 12.7429 49.9671 12.5606 49.995 12.3693C50.0798 11.9267 49.9948 11.6211 49.74 11.4524C49.4219 11.2675 49.056 11.1795 48.6879 11.1994H46.8864L46.3928 13.5398Z" fill="#57606F"/>
<path d="M63.5443 8.74571C63.5976 8.74377 63.6506 8.75423 63.6991 8.77626C63.7475 8.79828 63.7902 8.83126 63.8235 8.87256C63.8574 8.91392 63.8815 8.96235 63.8939 9.01423C63.9064 9.06611 63.9068 9.12011 63.8953 9.17219L63.5285 10.8485C63.5045 10.9685 63.4363 11.0753 63.3372 11.1481C63.2438 11.2281 63.125 11.273 63.0016 11.275H60.1961L58.4587 19.3874C58.4357 19.5058 58.3707 19.6121 58.2755 19.6871C58.1856 19.7672 58.0695 19.8122 57.9486 19.8136H55.8609C55.8077 19.8157 55.7547 19.8054 55.7062 19.7834C55.6578 19.7614 55.6152 19.7284 55.582 19.6871C55.548 19.6458 55.5238 19.5973 55.5114 19.5454C55.4989 19.4935 55.4985 19.4395 55.5102 19.3874L57.2479 11.276H54.4424C54.3901 11.2786 54.338 11.2683 54.2906 11.2462C54.2433 11.2241 54.2022 11.1907 54.1709 11.1491C54.1393 11.1066 54.1173 11.0578 54.1063 11.0061C54.0954 10.9544 54.0958 10.901 54.1075 10.8495L54.4739 9.17319C54.497 9.05475 54.5621 8.94844 54.6575 8.87355C54.7472 8.79332 54.8633 8.74823 54.984 8.74671L63.5443 8.74571Z" fill="#57606F"/>
<path d="M70.2231 8.74574C70.7884 8.74127 71.3508 8.82669 71.8889 8.99877C72.3756 9.15047 72.8226 9.40694 73.1978 9.74985C73.5538 10.0826 73.815 10.5027 73.9548 10.9677C74.1052 11.5017 74.1162 12.065 73.9867 12.6044C73.8723 13.1635 73.6736 13.7022 73.3971 14.2024C73.1499 14.6365 72.8129 15.0139 72.4084 15.3097C71.9708 15.6202 71.4749 15.8406 70.95 15.958C70.2989 16.104 69.6327 16.1731 68.9653 16.1637H66.7655L66.0641 19.3898C66.0411 19.5082 65.9761 19.6145 65.8808 19.6894C65.7911 19.7695 65.675 19.8145 65.5543 19.8159H63.4659C63.4127 19.8181 63.3597 19.8077 63.3113 19.7857C63.2628 19.7638 63.2202 19.7308 63.1871 19.6894C63.153 19.6481 63.1289 19.5997 63.1165 19.5478C63.104 19.4959 63.1036 19.4419 63.1152 19.3898L65.315 9.17389C65.338 9.05548 65.403 8.94917 65.4983 8.87425C65.5881 8.79402 65.7043 8.74894 65.8251 8.74741L70.2231 8.74574ZM67.2903 13.6964H69.2512C69.6612 13.7057 70.066 13.6047 70.4227 13.4041C70.5935 13.3001 70.7395 13.1608 70.851 12.9957C70.9624 12.8305 71.0366 12.6434 71.0684 12.4472C71.1243 12.281 71.1307 12.1024 71.0869 11.9327C71.043 11.763 70.9507 11.6094 70.8211 11.4904C70.5163 11.2789 70.1484 11.1758 69.7771 11.1978H67.8162L67.2903 13.6964Z" fill="#57606F"/>
<path d="M75.1012 12.874C75.2568 12.2922 75.4843 11.7318 75.7784 11.2054C76.0681 10.6868 76.4517 10.2258 76.91 9.84535C77.403 9.44385 77.9644 9.1333 78.5679 8.92846C79.2949 8.68872 80.0577 8.57376 80.8237 8.58854C81.4723 8.57889 82.1166 8.69433 82.7208 8.92846C83.2498 9.13351 83.7299 9.44579 84.1303 9.84535C84.5061 10.2284 84.7846 10.6945 84.9431 11.2054C85.1089 11.7458 85.1445 12.3174 85.0468 12.874C84.9721 13.3272 84.8816 13.8015 84.7753 14.2969C84.669 14.7923 84.5572 15.2563 84.4397 15.6889C84.2834 16.2714 84.0531 16.8319 83.7544 17.3569C83.1432 18.4394 82.1448 19.2549 80.9566 19.6421C80.2287 19.8768 79.4664 19.9893 78.7011 19.975C78.0532 19.9844 77.4094 19.8714 76.804 19.6421C76.2739 19.4427 75.7949 19.1295 75.4012 18.7249C75.0299 18.3366 74.7543 17.8684 74.5958 17.3569C74.4297 16.8167 74.3941 16.2453 74.4921 15.6889C74.5556 15.2565 74.6432 14.7925 74.7549 14.2969C74.8665 13.8013 74.982 13.327 75.1012 12.874ZM81.509 15.61C81.5622 15.42 81.6182 15.2092 81.6768 14.9774C81.7354 14.7457 81.7913 14.5086 81.8446 14.266C81.8976 14.0236 81.9454 13.789 81.9879 13.5622C82.0304 13.3353 82.0623 13.1323 82.0835 12.9532C82.1158 12.7114 82.1104 12.466 82.0674 12.2258C82.0295 12.0147 81.9392 11.8163 81.8046 11.6485C81.6616 11.4777 81.4781 11.3445 81.2707 11.261C81.0068 11.1588 80.7249 11.1105 80.4418 11.1188C80.1407 11.1141 79.8411 11.1622 79.5569 11.261C79.3056 11.3509 79.0713 11.4819 78.8635 11.6485C78.6622 11.8113 78.4898 12.0064 78.3534 12.2258C78.2131 12.4521 78.1057 12.697 78.0346 12.9532C77.9814 13.1328 77.9254 13.3358 77.8668 13.5622C77.8082 13.7885 77.7523 14.0232 77.699 14.266C77.6458 14.5083 77.598 14.7455 77.5557 14.9774C77.5134 15.2094 77.4816 15.4202 77.4601 15.61C77.3809 16.0657 77.4777 16.5343 77.7312 16.9224C77.9753 17.2702 78.4269 17.4441 79.086 17.4441C79.6646 17.4749 80.2338 17.2886 80.6804 16.9224C81.0755 16.5709 81.3627 16.116 81.509 15.61Z" fill="#57606F"/>
<path d="M91.8062 8.58826C92.4009 8.5811 92.992 8.68011 93.5513 8.88057C94.0394 9.05461 94.4946 9.3086 94.898 9.63199C95.2446 9.9072 95.532 10.2486 95.743 10.6361C95.9256 10.9618 96.0138 11.3312 95.9981 11.7035C95.9752 11.8011 95.9189 11.8878 95.8387 11.9488C95.7684 12.0116 95.6781 12.048 95.5836 12.0517H93.4956C93.3779 12.0579 93.2605 12.0362 93.153 11.9885C93.0617 11.9375 92.9785 11.8736 92.906 11.7987C92.8594 11.7493 92.8168 11.6964 92.7784 11.6405C92.7106 11.5528 92.6299 11.4756 92.5392 11.4115C92.4079 11.3202 92.2624 11.2507 92.1086 11.2057C91.886 11.1422 91.6549 11.1129 91.4233 11.1188C91.226 11.1187 91.0289 11.1319 90.8333 11.1585C90.654 11.1822 90.4776 11.2246 90.3071 11.285C90.1579 11.3368 90.0219 11.4206 89.9088 11.5303C89.801 11.6384 89.7287 11.7763 89.7014 11.9259C89.6839 11.9938 89.6806 12.0646 89.6915 12.134C89.7025 12.2033 89.7275 12.2696 89.7652 12.329C89.8801 12.4697 90.0317 12.5764 90.2035 12.6377C90.4925 12.7551 90.7911 12.8476 91.0961 12.9143C91.4731 13.0031 91.9429 13.1059 92.5056 13.2226C93.6211 13.4652 94.4128 13.8553 94.8806 14.3929C95.3484 14.9304 95.4759 15.6948 95.2632 16.6861C95.1653 17.1925 94.9607 17.6728 94.6626 18.0952C94.3645 18.5177 93.9797 18.8729 93.5335 19.1374C92.614 19.6963 91.3574 19.9756 89.7638 19.9754C89.159 19.981 88.5576 19.8847 87.9852 19.6907C87.4773 19.5218 87.001 19.2707 86.5757 18.9476C86.2015 18.6644 85.8919 18.3061 85.6669 17.8959C85.4613 17.5325 85.3672 17.1175 85.3961 16.7017C85.419 16.6042 85.4752 16.5177 85.5552 16.4567C85.6255 16.3939 85.7157 16.3575 85.8102 16.3538H87.901C88.0178 16.3482 88.1346 16.367 88.2436 16.4091C88.3265 16.4487 88.3998 16.5055 88.4587 16.5755C88.5166 16.6385 88.5675 16.7074 88.6104 16.7813C88.684 16.8928 88.7755 16.9917 88.8812 17.0739C89.0275 17.1871 89.1919 17.2752 89.3675 17.3346C89.6195 17.4158 89.8838 17.4532 90.1487 17.4451C90.6387 17.4548 91.1274 17.3935 91.5995 17.263C91.7687 17.2306 91.9255 17.1521 92.0522 17.0362C92.1789 16.9202 92.2705 16.7716 92.3167 16.6068C92.3341 16.5351 92.3323 16.4601 92.3112 16.3893C92.2902 16.3185 92.2508 16.2545 92.1969 16.2037C92.0321 16.0627 91.8393 15.9575 91.6311 15.895C91.2998 15.7821 90.9617 15.6896 90.6189 15.618C90.2095 15.5293 89.7285 15.4212 89.1759 15.2938C88.1342 15.062 87.4195 14.6562 87.0318 14.0762C86.6441 13.4963 86.5511 12.7527 86.7529 11.8456C86.8479 11.3942 87.0234 10.9631 87.2711 10.5728C87.5316 10.1662 87.8701 9.81424 88.2674 9.5371C88.7235 9.22246 89.2302 8.98716 89.7658 8.84128C90.4306 8.66223 91.1175 8.57705 91.8062 8.58826Z" fill="#57606F"/>
</svg>
