<svg width="144" height="30" viewBox="0 0 144 30" fill="none" xmlns="http://www.w3.org/2000/svg">
<g clip-path="url(#clip0)">
<path d="M27.2113 10.711C27.1642 9.77159 26.9227 8.85212 26.5019 8.0108C26.0812 7.16947 25.4903 6.42462 24.7667 5.82335C23.6931 4.93283 22.427 4.30414 21.0685 3.98697C20.2665 3.79349 19.448 3.67659 18.6239 3.63785C18.4266 3.60482 18.2268 3.58847 18.0268 3.58897C16.1165 3.58897 14.4053 3.55056 12.8723 3.47725L11.9398 3.42837C2.74487 2.6219 0.607644 0.851856 0.129212 0.212964C0.0754607 0.149028 0.0318794 0.0771984 0 0C0.00151458 0.0506526 0.00854038 0.10099 0.0209532 0.150122C0.0689731 0.401401 0.135506 0.648787 0.220009 0.89026C0.757809 2.48574 2.57026 5.72559 8.46161 6.89864C8.84226 6.97545 10.4976 7.31758 12.3938 7.54102C13.878 7.71558 15.3657 7.85174 16.8499 8.04376C17.3109 8.1066 17.7718 8.17293 18.2468 8.2672C18.8254 8.38514 19.3641 8.6496 19.8113 9.03526C20.0919 9.29457 20.3164 9.60868 20.4708 9.95818C20.6251 10.3077 20.7061 10.6851 20.7088 11.0671C20.715 11.1937 20.7695 11.3131 20.8611 11.4008C20.9527 11.4885 21.0744 11.5377 21.2012 11.5385H26.7293C26.797 11.5399 26.8642 11.5276 26.927 11.5023C26.9897 11.4769 27.0467 11.4391 27.0943 11.3911C27.142 11.3432 27.1794 11.286 27.2043 11.2231C27.2292 11.1602 27.2411 11.0929 27.2392 11.0253C27.2182 10.8856 27.2148 10.7564 27.2113 10.711Z" fill="#009F3C"/>
<path d="M13.4346 9.88347C12.8733 9.73593 12.3044 9.61938 11.7304 9.53435C8.07052 8.91641 5.36756 7.78875 3.37351 6.46558L3.32112 6.43066C3.00945 6.2498 2.71591 6.03935 2.44458 5.80225C2.44458 5.80225 2.86015 8.67552 5.8844 11.2835C6.13933 11.5034 6.41173 11.7233 6.70507 11.9363C6.99842 12.1493 7.37557 12.4111 7.75273 12.6346C10.5151 14.3034 15.1562 14.6211 18.1944 15.3228C19.5667 15.623 20.9026 16.0701 22.179 16.6564C22.5667 16.838 22.8321 16.9846 22.9718 17.0684L23.0905 17.1417C23.0695 17.1138 22.9368 16.9253 22.6889 16.6355C22.1954 16.0101 21.6102 15.4628 20.9533 15.0121C20.7013 14.8556 20.4401 14.7145 20.171 14.5896C19.8951 14.4605 19.6123 14.3452 19.3259 14.2405C19.0395 14.1358 18.7357 14.0415 18.4354 13.9612C18.2293 13.9054 18.0198 13.853 17.8138 13.8041L17.503 13.7343C16.4204 13.4899 15.3308 13.2176 14.5416 12.6869C12.9491 11.4685 14.4857 10.4421 13.4346 9.88347Z" fill="#009F3C"/>
<path d="M24.7947 20.434V20.4096C24.7233 20.2661 24.6428 20.1273 24.5537 19.9941C24.3926 19.7394 24.2116 19.4977 24.0124 19.2714C23.8175 19.0521 23.6062 18.8478 23.3803 18.6605C23.1601 18.4729 22.9267 18.3014 22.6819 18.1472C22.4299 17.9907 22.1687 17.8497 21.8997 17.7248C21.6238 17.5956 21.3409 17.4804 21.058 17.3757C20.7752 17.271 20.4644 17.1767 20.164 17.0964C19.8637 17.0161 19.5459 16.9358 19.2316 16.8695C18.9173 16.8031 18.5925 16.7438 18.2713 16.6879C17.95 16.6321 17.6147 16.5832 17.2899 16.5378L16.2737 16.4086L15.2819 16.2899L14.3181 16.1712C13.9968 16.1293 13.6755 16.0874 13.3577 16.0386C13.0399 15.9897 12.7396 15.9373 12.4288 15.878L12.0796 15.8081C10.5451 15.4946 9.04633 15.0267 7.60606 14.4116C7.14921 14.2298 6.70776 14.0115 6.286 13.7588C7.24501 15.5665 8.68106 17.077 10.4382 18.1263C11.1846 18.5361 11.9853 18.8382 12.8164 19.0235C13.6895 19.247 14.5625 19.4076 15.467 19.5752L16.3121 19.7357C16.6213 19.7717 16.9223 19.859 17.2026 19.9941C17.9919 20.4584 18.5995 21.2509 18.5157 22.1971C18.5048 22.3049 18.4885 22.4121 18.4668 22.5182C18.3895 22.9158 18.2288 23.2926 17.9952 23.6235C17.7617 23.9545 17.4606 24.2322 17.1118 24.4384C16.2776 24.9262 15.3224 25.1682 14.3565 25.1367C12.8735 25.1367 11.813 24.7968 11.1751 24.1172C10.597 23.4277 10.3035 22.5437 10.3544 21.6454C10.3544 21.5149 10.3025 21.3897 10.2102 21.2974C10.1179 21.205 9.99262 21.1532 9.86202 21.1532L4.27449 21.1357C4.20861 21.1366 4.14356 21.1506 4.08309 21.1767C4.02262 21.2029 3.96792 21.2407 3.92215 21.2881C3.87638 21.3355 3.84044 21.3915 3.8164 21.4528C3.79237 21.5141 3.7807 21.5796 3.78209 21.6454C3.77693 22.7342 4.01541 23.8102 4.48008 24.7949C4.94474 25.7795 5.62383 26.6478 6.4676 27.3361C7.4404 28.1458 8.56631 28.7513 9.77821 29.1166C11.1361 29.5351 12.5479 29.7527 13.9689 29.7625C15.869 29.8149 17.7628 29.5191 19.5564 28.8897C21.06 28.3927 22.4056 27.5075 23.4572 26.3237C24.1444 25.521 24.6241 24.5619 24.8541 23.5307C24.9355 23.1783 24.988 22.8198 25.0112 22.4589C25.0234 22.217 25.0234 21.9746 25.0112 21.7327C25.0067 21.4992 24.9892 21.2661 24.9588 21.0345C24.9302 20.8281 24.8751 20.6262 24.7947 20.434Z" fill="#009F3C"/>
<path d="M33.2948 25.5733C33.1949 25.4596 33.122 25.3247 33.0818 25.1788L31.8944 21.2617L30.2077 29.1239C30.1713 29.3017 30.0736 29.4611 29.9318 29.5743C29.7982 29.6938 29.6257 29.7608 29.4464 29.7628H26.3348C26.2556 29.7661 26.1768 29.7507 26.1046 29.718C26.0324 29.6852 25.9689 29.636 25.9192 29.5743C25.8679 29.5125 25.8314 29.4398 25.8126 29.3617C25.7938 29.2836 25.7933 29.2022 25.811 29.1239L29.0902 13.78C29.1236 13.6019 29.2204 13.442 29.3626 13.3296C29.495 13.2077 29.668 13.1393 29.848 13.1376H32.7011C32.8386 13.1336 32.9755 13.1586 33.1027 13.2109C33.2058 13.251 33.2996 13.3116 33.3786 13.389C33.4418 13.4544 33.4916 13.5314 33.5253 13.6159C33.5526 13.6736 33.5759 13.7331 33.5951 13.794L35.638 20.3714L40.4154 13.794C40.5329 13.6581 40.6601 13.5309 40.796 13.4134C41.0054 13.2318 41.2769 13.138 41.5538 13.1516H45.0949C45.1745 13.1481 45.2537 13.1638 45.326 13.1972C45.3983 13.2306 45.4616 13.2808 45.5105 13.3436C45.5619 13.4053 45.5984 13.4781 45.6171 13.5562C45.6359 13.6343 45.6365 13.7156 45.6188 13.794L42.3396 29.1553C42.3017 29.3312 42.2063 29.4895 42.0684 29.6052C41.9306 29.7209 41.7581 29.7874 41.5783 29.7942H38.4667C38.3875 29.7975 38.3087 29.7821 38.2365 29.7494C38.1643 29.7167 38.1008 29.6674 38.0512 29.6057C37.9998 29.5439 37.9633 29.4712 37.9445 29.3931C37.9257 29.315 37.9252 29.2337 37.9429 29.1553L39.6366 21.2617L36.8813 25.1788C36.7614 25.3317 36.6216 25.4679 36.4657 25.5838C36.2914 25.7133 36.0787 25.7809 35.8615 25.7758H33.8186C33.7217 25.7834 33.6243 25.7691 33.5337 25.7341C33.443 25.699 33.3614 25.6441 33.2948 25.5733Z" fill="#009F3C"/>
<path d="M58.0509 13.1372C58.1744 13.1239 58.2993 13.1409 58.4149 13.1865C58.5304 13.2321 58.6332 13.305 58.7144 13.399C58.8332 13.5528 58.9145 13.7321 58.9518 13.9227L60.9494 28.8861C61.0262 29.4726 60.8307 29.7623 60.3557 29.7623H57.4781C57.3652 29.7774 57.2503 29.7674 57.1416 29.733C57.033 29.6986 56.9332 29.6407 56.8495 29.5633C56.7575 29.4492 56.6961 29.3134 56.6714 29.1688L56.4095 27.1998H50.0921L49.0235 29.1688C48.9347 29.3224 48.8159 29.4565 48.6743 29.5633C48.4713 29.7081 48.2246 29.7784 47.9758 29.7623H44.6513C44.4278 29.7623 44.302 29.6855 44.2462 29.5249C44.212 29.3016 44.2632 29.0735 44.3894 28.8861L52.7706 13.9227C52.8872 13.7219 53.0399 13.5443 53.2211 13.399C53.4414 13.2197 53.7195 13.1266 54.0034 13.1372H58.0509ZM52.1141 23.5166H55.9555L55.2466 17.8049L52.1141 23.5166Z" fill="#009F3C"/>
<path d="M73.1128 13.1378C73.9822 13.13 74.8477 13.2548 75.6796 13.5078C76.4135 13.7214 77.0933 14.0892 77.6736 14.5866C78.213 15.064 78.6115 15.6797 78.826 16.3671C79.0592 17.1626 79.0796 18.0052 78.8854 18.811C78.6957 19.8608 78.2264 20.8401 77.5269 21.6459C76.8373 22.3793 75.9943 22.9515 75.0579 23.3216L76.8285 28.9774C76.8524 29.0926 76.8441 29.2121 76.8047 29.3229C76.7653 29.4337 76.6962 29.5316 76.605 29.6058C76.4975 29.7049 76.3566 29.7598 76.2104 29.7594H73.2176C73.1013 29.7746 72.9832 29.7633 72.8719 29.7264C72.7607 29.6895 72.6592 29.628 72.575 29.5465C72.4737 29.418 72.3935 29.2743 72.3375 29.1205L70.794 24.0373H68.3704L67.2773 29.1205C67.2439 29.2986 67.1471 29.4586 67.0049 29.5709C66.8713 29.6904 66.6988 29.7574 66.5195 29.7594H63.4045C63.3254 29.7619 63.2468 29.7462 63.1747 29.7135C63.1027 29.6808 63.0391 29.632 62.9889 29.5709C62.9388 29.5085 62.9034 29.4356 62.8852 29.3576C62.8671 29.2797 62.8667 29.1987 62.8841 29.1205L66.1633 13.7767C66.1967 13.5986 66.2935 13.4386 66.4357 13.3263C66.5681 13.2044 66.7411 13.1359 66.9211 13.1343L73.1128 13.1378ZM69.1456 20.3367H71.8311C72.4354 20.3524 73.0344 20.2219 73.5773 19.9561C73.8317 19.8156 74.0499 19.6178 74.2147 19.3785C74.3796 19.1392 74.4865 18.8648 74.5271 18.5771C74.6563 17.9137 74.5271 17.4529 74.15 17.2015C73.6751 16.9226 73.1284 16.7902 72.5785 16.821H69.8965L69.1456 20.3367Z" fill="#009F3C"/>
<path d="M94.7085 13.1376C94.788 13.1344 94.8672 13.1502 94.9394 13.1836C95.0117 13.217 95.075 13.267 95.1241 13.3296C95.1748 13.3918 95.2109 13.4645 95.2296 13.5425C95.2483 13.6204 95.2493 13.7016 95.2324 13.78L94.6841 16.2972C94.6493 16.4782 94.5469 16.6392 94.3977 16.7475C94.2604 16.8682 94.0847 16.9363 93.9018 16.9395H89.7112L87.1235 29.1239C87.0839 29.299 86.9881 29.4563 86.8506 29.5716C86.713 29.687 86.5415 29.7542 86.3622 29.7628H83.2506C83.1714 29.766 83.0925 29.7507 83.0204 29.718C82.9482 29.6852 82.8847 29.636 82.835 29.5742C82.7836 29.5125 82.7472 29.4398 82.7284 29.3617C82.7096 29.2836 82.7091 29.2022 82.7268 29.1239L85.318 16.9395H81.1273C81.0529 16.9426 80.9788 16.9277 80.9114 16.8961C80.8439 16.8645 80.785 16.8171 80.7397 16.758C80.6915 16.6946 80.6577 16.6215 80.6408 16.5437C80.6239 16.4658 80.6243 16.3853 80.6419 16.3076L81.1902 13.7905C81.2237 13.6124 81.3204 13.4524 81.4626 13.3401C81.5964 13.2182 81.7705 13.1499 81.9515 13.1481L94.7085 13.1376Z" fill="#009F3C"/>
<path d="M104.661 13.1374C105.504 13.1317 106.342 13.2601 107.144 13.5179C107.87 13.7513 108.536 14.1424 109.093 14.663C109.624 15.1624 110.013 15.7937 110.221 16.4924C110.443 17.2899 110.46 18.1306 110.27 18.9363C110.1 19.7757 109.803 20.5844 109.39 21.3348C109.02 21.9875 108.515 22.554 107.909 22.9966C107.258 23.4633 106.519 23.7935 105.737 23.9671C104.767 24.187 103.774 24.2913 102.779 24.2779H99.5L98.4523 29.1237C98.4144 29.2996 98.319 29.4578 98.1812 29.5735C98.0433 29.6892 97.8708 29.7557 97.691 29.7626H94.5794C94.5002 29.7658 94.4214 29.7505 94.3492 29.7177C94.277 29.685 94.2136 29.6358 94.1639 29.574C94.1125 29.5123 94.076 29.4396 94.0572 29.3615C94.0385 29.2834 94.0379 29.202 94.0556 29.1237L97.3348 13.7798C97.3682 13.6017 97.465 13.4417 97.6072 13.3294C97.741 13.2075 97.9151 13.1392 98.0961 13.1374H104.661ZM100.293 20.5737H103.212C103.823 20.5881 104.427 20.436 104.958 20.1338C105.213 19.9776 105.431 19.7682 105.598 19.52C105.764 19.2717 105.875 18.9904 105.922 18.6954C106.048 18.0321 105.922 17.5503 105.555 17.2605C105.101 16.9428 104.552 16.7879 103.998 16.8206H101.075L100.293 20.5737Z" fill="#009F3C"/>
<path d="M111.932 19.3382C112.164 18.4643 112.503 17.6223 112.941 16.8315C113.374 16.0536 113.946 15.3614 114.628 14.7891C115.363 14.1805 116.2 13.7076 117.101 13.3926C118.192 13.0433 119.335 12.8827 120.481 12.9178C121.435 12.9023 122.383 13.0694 123.275 13.4101C124.062 13.7256 124.776 14.2012 125.37 14.8066C125.93 15.3817 126.346 16.0817 126.582 16.8489C126.829 17.6609 126.881 18.5195 126.736 19.3556C126.627 20.0539 126.491 20.7521 126.334 21.4922C126.177 22.2324 126.009 22.9341 125.835 23.587C125.601 24.4615 125.258 25.3027 124.811 26.0902C124.372 26.8705 123.797 27.5667 123.114 28.1465C122.384 28.7615 121.545 29.2351 120.642 29.543C119.557 29.8935 118.422 30.0611 117.282 30.0387C116.316 30.054 115.356 29.8857 114.453 29.543C113.661 29.2369 112.946 28.7601 112.358 28.1465C111.806 27.562 111.396 26.8584 111.16 26.0902C110.912 25.2797 110.859 24.4218 111.007 23.587C111.1 22.9376 111.23 22.2394 111.398 21.4922C111.59 20.7312 111.751 20.0189 111.932 19.3382ZM121.483 23.4473C121.564 23.161 121.644 22.8433 121.731 22.4977C121.819 22.1521 121.902 21.7995 121.983 21.4294C122.063 21.0593 122.133 20.7102 122.196 20.382C122.259 20.0539 122.307 19.7362 122.339 19.4673C122.386 19.1039 122.377 18.7355 122.314 18.3746C122.259 18.0576 122.125 17.7598 121.923 17.5088C121.71 17.2517 121.437 17.0513 121.127 16.9257C120.733 16.7724 120.313 16.7 119.891 16.7128C119.443 16.7053 118.997 16.7774 118.574 16.9257C118.194 17.0582 117.84 17.2555 117.527 17.5088C117.225 17.752 116.968 18.0448 116.765 18.3746C116.557 18.7115 116.398 19.0758 116.29 19.4569C116.21 19.7257 116.126 20.0294 116.042 20.3716C115.959 20.7137 115.871 21.0698 115.791 21.4189C115.711 21.768 115.641 22.1381 115.578 22.4872C115.515 22.8364 115.466 23.1506 115.435 23.4368C115.316 24.1208 115.461 24.8244 115.84 25.4059C116.203 25.9296 116.876 26.1914 117.858 26.1914C118.721 26.2378 119.569 25.9573 120.233 25.4059C120.826 24.8839 121.26 24.205 121.483 23.4473Z" fill="#009F3C"/>
<path d="M136.832 12.9175C137.718 12.9068 138.6 13.0558 139.433 13.3574C140.157 13.615 140.833 13.9901 141.434 14.4676C141.949 14.882 142.377 15.3947 142.692 15.9758C142.964 16.4647 143.095 17.0193 143.072 17.5783C143.037 17.7251 142.954 17.8556 142.835 17.9484C142.729 18.0417 142.595 18.0959 142.454 18.102H139.339C139.164 18.1115 138.989 18.0792 138.829 18.0077C138.692 17.932 138.567 17.8354 138.459 17.7214C138.39 17.6478 138.326 17.5684 138.27 17.484C138.172 17.3511 138.054 17.2335 137.921 17.1349C137.726 16.9965 137.509 16.8915 137.279 16.8242C136.947 16.7293 136.603 16.6857 136.259 16.695C135.965 16.6932 135.67 16.7131 135.379 16.7544C135.111 16.7883 134.847 16.8516 134.593 16.9429C134.37 17.0202 134.167 17.1467 133.999 17.313C133.839 17.4748 133.732 17.6819 133.692 17.9065C133.665 18.0082 133.66 18.1144 133.676 18.2183C133.693 18.3222 133.73 18.4217 133.786 18.5105C133.96 18.7262 134.189 18.8894 134.45 18.9818C134.881 19.1575 135.326 19.2965 135.781 19.3972C136.343 19.5299 137.045 19.687 137.876 19.8581C139.538 20.2235 140.718 20.8053 141.417 21.6037C142.115 22.402 142.305 23.5494 141.986 25.046C141.841 25.8069 141.536 26.5283 141.091 27.1631C140.647 27.7979 140.074 28.3316 139.409 28.7292C138.04 29.5671 136.167 29.9861 133.79 29.9861C132.889 29.9952 131.992 29.8511 131.139 29.5601C130.385 29.3048 129.677 28.9274 129.044 28.443C128.487 28.0239 128.024 27.4922 127.686 26.8824C127.378 26.3368 127.237 25.7128 127.28 25.0879C127.318 24.9481 127.402 24.8251 127.518 24.7388C127.622 24.6434 127.757 24.5889 127.899 24.5852H131.01C131.184 24.5757 131.358 24.603 131.52 24.6655C131.644 24.725 131.754 24.8108 131.841 24.9168C131.928 25.0104 132.004 25.1134 132.068 25.2241C132.177 25.3918 132.313 25.5404 132.47 25.6639C132.689 25.8339 132.934 25.966 133.196 26.055C133.571 26.1781 133.965 26.2348 134.359 26.2225C135.089 26.2371 135.817 26.1454 136.521 25.9502C136.776 25.8985 137.011 25.7767 137.201 25.5984C137.39 25.4202 137.526 25.1926 137.593 24.9413C137.618 24.8335 137.614 24.7211 137.582 24.6152C137.551 24.5092 137.492 24.4135 137.411 24.3373C137.167 24.1248 136.88 23.9666 136.57 23.873C136.076 23.7033 135.572 23.5646 135.061 23.4575C134.45 23.3248 133.734 23.1608 132.91 22.9722C131.359 22.6231 130.294 22.0133 129.715 21.1428C129.135 20.2724 128.996 19.1598 129.299 17.8052C129.441 17.127 129.703 16.4793 130.071 15.892C130.458 15.2743 130.962 14.7382 131.555 14.314C132.236 13.8415 132.991 13.4874 133.79 13.2666C134.782 13.0074 135.806 12.8899 136.832 12.9175Z" fill="#009F3C"/>
<path d="M114.803 6.95459H31.7163V7.30371H114.803V6.95459Z" fill="#009F3C"/>
<path d="M122.576 5.19493C122.596 5.1941 122.616 5.19811 122.635 5.20662C122.653 5.21512 122.669 5.22788 122.681 5.24381C122.693 5.25937 122.702 5.27739 122.707 5.29665C122.712 5.31592 122.713 5.33599 122.709 5.35553L122.615 5.77796C122.605 5.82227 122.581 5.86184 122.545 5.88968C122.529 5.90549 122.51 5.91795 122.489 5.92634C122.468 5.93473 122.445 5.93888 122.423 5.93856H121.354L120.656 9.19237C120.648 9.2373 120.623 9.2774 120.586 9.30409C120.554 9.33457 120.511 9.352 120.467 9.35297H119.985C119.965 9.35379 119.945 9.34979 119.927 9.34128C119.909 9.33278 119.893 9.32002 119.88 9.30409C119.868 9.28864 119.859 9.27063 119.854 9.25133C119.849 9.23203 119.849 9.2119 119.852 9.19237L120.551 5.93856H119.482C119.462 5.93939 119.442 5.93538 119.424 5.92687C119.406 5.91837 119.39 5.90561 119.378 5.88968C119.366 5.87395 119.357 5.8558 119.353 5.83651C119.349 5.81722 119.349 5.79724 119.353 5.77796L119.447 5.35553C119.456 5.31098 119.481 5.27122 119.517 5.24381C119.549 5.21332 119.592 5.1959 119.636 5.19493H122.576Z" fill="#009F3C"/>
<path d="M126.142 5.19463C126.35 5.19231 126.558 5.22294 126.757 5.2854C126.922 5.3372 127.074 5.42549 127.2 5.54375C127.318 5.65399 127.402 5.79578 127.441 5.95222C127.487 6.13091 127.487 6.31816 127.441 6.49685C127.412 6.63205 127.37 6.76415 127.315 6.89136C127.266 7.01034 127.199 7.12104 127.116 7.21953C127.033 7.32373 126.932 7.41339 126.819 7.48487C126.694 7.56518 126.559 7.63078 126.418 7.68037L126.931 9.14668C126.935 9.17005 126.934 9.194 126.928 9.21694C126.922 9.23988 126.911 9.2613 126.897 9.27978C126.882 9.29826 126.863 9.31337 126.842 9.32413C126.821 9.33489 126.798 9.34105 126.774 9.34219H126.348C126.318 9.34589 126.287 9.3428 126.258 9.33314C126.229 9.32348 126.202 9.30749 126.18 9.28633C126.154 9.25542 126.134 9.2199 126.121 9.18159L125.643 7.78511H124.773L124.476 9.18159C124.468 9.22563 124.445 9.26532 124.41 9.29331C124.376 9.32324 124.333 9.34051 124.288 9.34219H123.806C123.786 9.34223 123.766 9.33786 123.748 9.32942C123.73 9.32097 123.714 9.30864 123.701 9.29331C123.688 9.27795 123.68 9.25982 123.675 9.24039C123.671 9.22097 123.671 9.20082 123.676 9.18159L124.494 5.34126C124.504 5.29728 124.528 5.25796 124.564 5.22954C124.597 5.1991 124.64 5.18175 124.686 5.18066L126.142 5.19463ZM124.909 7.06592H125.772C125.967 7.0734 126.162 7.03264 126.338 6.94722C126.419 6.90026 126.488 6.8352 126.54 6.7571C126.592 6.67899 126.626 6.58994 126.638 6.49685C126.66 6.40629 126.66 6.31161 126.638 6.22105C126.621 6.15201 126.582 6.09055 126.526 6.04648C126.461 6.00292 126.387 5.97431 126.31 5.9627C126.211 5.94504 126.11 5.93685 126.009 5.93826H125.147L124.909 7.06592Z" fill="#009F3C"/>
<path d="M131.593 5.19522C131.618 5.19255 131.642 5.19594 131.665 5.20508C131.687 5.21422 131.707 5.22883 131.723 5.24759C131.751 5.29346 131.77 5.34448 131.779 5.39771L132.435 9.15077C132.44 9.17682 132.439 9.2038 132.43 9.22895C132.421 9.25409 132.406 9.27651 132.386 9.29391C132.347 9.33179 132.294 9.35304 132.239 9.35326H131.841C131.814 9.35674 131.786 9.35416 131.759 9.34572C131.733 9.33728 131.708 9.32318 131.688 9.30438C131.666 9.2735 131.65 9.23931 131.639 9.20314L131.52 8.54679H129.645L129.254 9.20314C129.23 9.24104 129.2 9.27517 129.166 9.30438C129.116 9.34066 129.054 9.35797 128.992 9.35326H128.513C128.489 9.35444 128.465 9.34846 128.444 9.33605C128.422 9.32365 128.405 9.30536 128.395 9.28344C128.383 9.26339 128.376 9.24047 128.376 9.2171C128.376 9.19374 128.383 9.17082 128.395 9.15077L130.647 5.39771C130.678 5.34209 130.716 5.29146 130.762 5.24759C130.805 5.21119 130.86 5.19246 130.916 5.19522H131.593ZM131.398 7.80316L131.105 6.10992L130.092 7.80316H131.398Z" fill="#009F3C"/>
<path d="M136.629 5.19463C136.881 5.18704 137.132 5.22732 137.369 5.31333C137.553 5.37874 137.716 5.49205 137.841 5.6415C137.958 5.79211 138.036 5.96974 138.068 6.1582C138.104 6.38247 138.104 6.61123 138.068 6.8355C138.043 6.98562 138.019 7.13225 137.987 7.27539C137.956 7.41853 137.921 7.56167 137.879 7.71529C137.813 7.94786 137.717 8.17083 137.593 8.37862C137.477 8.57485 137.328 8.74964 137.153 8.89532C136.975 9.04213 136.771 9.1546 136.552 9.22698C136.304 9.3071 136.044 9.34602 135.784 9.34219H134.286C134.266 9.34246 134.247 9.33819 134.229 9.3297C134.212 9.32122 134.196 9.30876 134.184 9.29331C134.171 9.27827 134.162 9.26028 134.157 9.24084C134.152 9.22141 134.152 9.2011 134.156 9.1816L134.977 5.34126C134.984 5.29699 135.008 5.2571 135.043 5.22954C135.077 5.1991 135.12 5.18175 135.166 5.18066L136.629 5.19463ZM137.257 6.8355C137.276 6.71988 137.276 6.60199 137.257 6.48638C137.242 6.38196 137.2 6.28329 137.135 6.2001C137.063 6.11583 136.97 6.05103 136.866 6.01157C136.73 5.96143 136.585 5.93773 136.44 5.94175H135.644L135.075 8.61253H135.903C136.051 8.61514 136.198 8.59271 136.339 8.54619C136.466 8.50415 136.584 8.44035 136.688 8.35767C136.784 8.27821 136.864 8.18246 136.926 8.07488C136.991 7.96557 137.041 7.84819 137.076 7.72576C137.118 7.57215 137.156 7.42551 137.184 7.28587C137.212 7.14622 137.244 6.98213 137.244 6.8355H137.257Z" fill="#009F3C"/>
<path d="M142.416 8.6093C142.435 8.60903 142.454 8.61331 142.472 8.62179C142.49 8.63027 142.505 8.64273 142.517 8.65818C142.53 8.67303 142.539 8.69134 142.543 8.71107C142.547 8.7308 142.545 8.75117 142.538 8.7699L142.451 9.19234C142.443 9.23727 142.418 9.27736 142.381 9.30405C142.347 9.3345 142.304 9.35185 142.258 9.35293H139.653C139.633 9.35376 139.613 9.34975 139.595 9.34125C139.577 9.33274 139.561 9.31999 139.549 9.30405C139.536 9.2886 139.527 9.27059 139.522 9.25129C139.517 9.23199 139.517 9.21187 139.521 9.19234L140.341 5.352C140.35 5.30746 140.375 5.2677 140.411 5.24028C140.443 5.2098 140.486 5.19237 140.53 5.19141H143.093C143.11 5.19271 143.126 5.19741 143.141 5.2052C143.156 5.213 143.17 5.22375 143.18 5.23679C143.193 5.25198 143.203 5.26998 143.207 5.28937C143.212 5.30875 143.213 5.329 143.208 5.34851L143.114 5.77095C143.105 5.81526 143.08 5.85483 143.044 5.88267C143.028 5.89848 143.009 5.91094 142.988 5.91933C142.967 5.92771 142.945 5.93187 142.922 5.93154H141.005L140.802 6.87417H142.59C142.61 6.87332 142.629 6.87733 142.647 6.88586C142.665 6.89439 142.68 6.90717 142.691 6.92305C142.703 6.93889 142.711 6.95704 142.716 6.97629C142.72 6.99555 142.72 7.01547 142.716 7.03477L142.625 7.4572C142.617 7.50213 142.592 7.54223 142.555 7.56892C142.521 7.60106 142.476 7.61862 142.43 7.6178H140.642L140.436 8.60232L142.416 8.6093Z" fill="#009F3C"/>
</g>
<defs>
<clipPath id="clip0">
<rect width="143.226" height="30" fill="white"/>
</clipPath>
</defs>
</svg>
