<svg width="320" height="88" viewBox="0 0 320 88" fill="none" xmlns="http://www.w3.org/2000/svg">
<path d="M67.0505 35.4605C66.9464 33.4908 66.4348 31.564 65.5481 29.8021C64.6615 28.0401 63.419 26.4812 61.8992 25.2239C59.6481 23.356 56.9934 22.0373 54.1449 21.372C52.454 20.9637 50.7281 20.7179 48.9904 20.6378C48.5767 20.5678 48.1579 20.5327 47.7383 20.533C43.7332 20.533 40.1455 20.4522 36.9312 20.2991C36.2726 20.2697 35.6203 20.233 34.9764 20.1942C15.7543 18.4943 11.2763 14.7828 10.2706 13.4468C10.1579 13.3126 10.0667 13.1619 10 13C10.003 13.1062 10.0177 13.2117 10.044 13.3146C10.1454 13.8416 10.2856 14.3604 10.4635 14.8667C11.5909 18.2132 15.3925 25.0079 27.7444 27.4682C28.5393 27.6265 32.0095 28.3481 35.9873 28.8179C39.0989 29.1849 42.2209 29.4639 45.3273 29.8718C46.2973 29.9998 47.2674 30.1403 48.2259 30.3364C49.4388 30.5871 50.568 31.1422 51.5074 31.9494C52.1018 32.4905 52.5785 33.1481 52.9079 33.8813C53.2373 34.6145 53.4125 35.4076 53.4224 36.2114C53.4358 36.4765 53.5502 36.7263 53.7421 36.9097C53.934 37.093 54.1889 37.1959 54.4543 37.1972H66.0427C66.1819 37.1971 66.3198 37.169 66.4479 37.1146C66.5761 37.0601 66.692 36.9804 66.7887 36.8801C66.8854 36.7799 66.9609 36.6613 67.0107 36.5312C67.0606 36.4012 67.0837 36.2625 67.0788 36.1233C67.0683 35.8265 67.0589 35.558 67.0505 35.4605Z" fill="#009F3C"/>
<path d="M38.1676 33.725C36.9912 33.4087 35.7984 33.157 34.5946 32.971C28.3693 32.0725 22.4007 29.8816 17.0725 26.5392C17.036 26.5171 17.0009 26.4926 16.9676 26.4658C16.3102 26.0941 15.69 25.66 15.1156 25.1696C15.1156 25.1696 15.9871 31.1955 22.3277 36.6656C22.8625 37.1271 23.433 37.5885 24.0486 38.0353C24.7535 38.561 25.4843 39.051 26.2383 39.5035C32.0304 43.0031 41.7594 43.6701 48.1315 45.1414C51.0066 45.7696 53.8057 46.7056 56.4804 47.9331C56.4877 47.9331 56.495 47.9331 56.5024 47.9478C57.3151 48.3285 57.872 48.6358 58.1646 48.812C58.3041 48.9 58.3838 48.9514 58.4132 48.9661C58.3691 48.9074 58.0912 48.512 57.5742 47.9048C56.5371 46.5817 55.3051 45.4236 53.9204 44.4702C53.39 44.1409 52.8402 43.844 52.2739 43.5809C51.695 43.3104 51.1025 43.0681 50.5016 42.8563C49.9007 42.6444 49.2641 42.4368 48.6349 42.27C48.2028 42.1526 47.7634 42.0435 47.3313 41.9407C47.1121 41.8893 46.8992 41.8359 46.68 41.7939C44.5025 41.4278 42.4028 40.6949 40.4706 39.6262C37.1503 37.0495 40.3678 34.8986 38.1676 33.725Z" fill="#009F3C"/>
<path d="M61.9819 55.8509L61.9599 55.8005C61.8134 55.5004 61.6466 55.2107 61.4607 54.9333C61.123 54.3978 60.7428 53.8903 60.3239 53.4158C59.9154 52.955 59.4723 52.5262 58.9983 52.1332C58.5258 51.7413 58.0268 51.3825 57.5049 51.0593C56.9757 50.7317 56.4277 50.4354 55.8637 50.1721C55.2869 49.9015 54.6964 49.6613 54.0966 49.4463C53.481 49.2261 52.8559 49.0331 52.2246 48.8591C51.5775 48.6818 50.9252 48.5266 50.2708 48.3871C49.6164 48.2476 48.9274 48.1187 48.2531 48.0054C47.5788 47.8921 46.8824 47.7873 46.1945 47.6908C45.5065 47.5943 44.8101 47.5052 44.1169 47.4202C43.4237 47.3353 42.7326 47.2524 42.0405 47.1696C41.3483 47.0867 40.6708 47.0039 39.9871 46.9147C39.3033 46.8256 38.6458 46.7343 37.9767 46.6316C37.3265 46.5319 36.6773 46.4218 36.0313 46.297C35.7908 46.2509 35.5513 46.2023 35.3129 46.1513C32.0969 45.5054 28.9544 44.5364 25.9331 43.2589C24.9817 42.8645 24.0635 42.3942 23.1876 41.8525C25.1966 45.6427 28.2051 48.8104 31.8867 51.0121C33.4485 51.876 35.126 52.5117 36.8682 52.8998C38.7045 53.3696 40.5702 53.7062 42.4327 54.0534C43.0231 54.1582 43.6135 54.2726 44.2029 54.3921C44.8519 54.468 45.4838 54.6513 46.0728 54.9343C46.9217 55.3653 47.6307 56.0287 48.1171 56.8471C48.6036 57.6656 48.8475 58.6054 48.8205 59.5571C48.8012 59.783 48.7679 60.0075 48.7208 60.2293C48.5568 61.0605 48.2189 61.8477 47.7293 62.5392C47.2397 63.2307 46.6094 63.8109 45.8798 64.2417C44.1282 65.2568 42.1256 65.7567 40.1024 65.6837C36.9905 65.6837 34.7767 64.9846 33.4609 63.5863C32.2411 62.1443 31.6144 60.293 31.7074 58.4066C31.7058 58.1336 31.5966 57.8723 31.4037 57.6791C31.2108 57.486 30.9495 57.3766 30.6765 57.3747L18.9654 57.3348C18.8253 57.3356 18.6867 57.3644 18.5579 57.4197C18.4291 57.4749 18.3126 57.5554 18.2155 57.6564C18.1183 57.7574 18.0423 57.8768 17.9921 58.0077C17.9419 58.1385 17.9184 58.2781 17.923 58.4182C17.9171 60.6977 18.4198 62.9499 19.3946 65.0105C20.3694 67.0711 21.7917 68.8883 23.5578 70.3296C25.6036 72.0308 27.9722 73.3011 30.5213 74.064C33.3777 74.9446 36.3479 75.4011 39.3369 75.419C43.3136 75.526 47.2764 74.9054 51.0301 73.5879C54.1722 72.5409 56.9831 70.6846 59.1797 68.2059C60.6187 66.5265 61.6243 64.5202 62.1088 62.3624C62.2794 61.6234 62.3895 60.8718 62.4381 60.115C62.4706 59.6095 62.4811 59.0998 62.4643 58.5922C62.4526 58.1141 62.4151 57.637 62.3521 57.1628C62.2886 56.7108 62.1641 56.2694 61.9819 55.8509Z" fill="#009F3C"/>
<path d="M79.807 66.6303C79.5985 66.3929 79.4455 66.112 79.3592 65.8081L76.8685 57.5882L73.3322 74.0773C73.26 74.4503 73.0565 74.7852 72.7586 75.0211C72.4782 75.2735 72.1154 75.4152 71.7382 75.4196H65.213C65.0465 75.4263 64.8808 75.3937 64.7292 75.3244C64.5776 75.2552 64.4445 75.1513 64.3405 75.0211C64.2342 74.891 64.1587 74.7384 64.1199 74.575C64.081 74.4115 64.0797 74.2413 64.1161 74.0773L70.9904 41.8972C71.0626 41.5241 71.2662 41.1892 71.5641 40.9534C71.8447 40.7005 72.2078 40.5584 72.5855 40.5538H78.5633C78.8529 40.5459 79.1411 40.5965 79.4106 40.7027C79.6235 40.7902 79.8178 40.9172 79.9832 41.0771C80.1173 41.2056 80.2271 41.3573 80.3073 41.5249C80.373 41.6745 80.4226 41.799 80.4562 41.8983L84.7392 55.6973L94.7524 41.8983C95.0003 41.6153 95.2665 41.3491 95.5494 41.1012C95.9904 40.7201 96.5614 40.5237 97.1435 40.5527H104.566C104.733 40.5466 104.898 40.5796 105.05 40.649C105.201 40.7184 105.334 40.8222 105.438 40.9523C105.544 41.0825 105.619 41.2351 105.658 41.3985C105.697 41.562 105.698 41.7321 105.662 41.8962L98.7858 74.0773C98.7139 74.4502 98.5107 74.785 98.2132 75.0211C97.9325 75.2737 97.5693 75.4154 97.1917 75.4196H90.6687C90.5023 75.4264 90.3367 75.3938 90.1853 75.3246C90.0339 75.2553 89.9009 75.1513 89.7972 75.0211C89.6907 74.891 89.6152 74.7385 89.5763 74.575C89.5375 74.4115 89.5362 74.2413 89.5727 74.0773L93.109 57.5882L87.3306 65.8081C87.0773 66.1265 86.784 66.4109 86.458 66.6544C86.0917 66.9267 85.6443 67.0675 85.188 67.054H80.904C80.701 67.0715 80.4966 67.0424 80.3065 66.969C80.1164 66.8955 79.9456 66.7797 79.807 66.6303Z" fill="#009F3C"/>
<path d="M131.712 40.5492C131.972 40.5211 132.234 40.5563 132.477 40.6518C132.72 40.7474 132.936 40.9003 133.106 41.0977C133.352 41.4209 133.523 41.7955 133.604 42.1936L137.789 73.5776C137.955 74.806 137.54 75.4202 136.544 75.4202H130.516C130.278 75.4535 130.037 75.433 129.808 75.3604C129.58 75.2878 129.37 75.1649 129.196 75.0008C129 74.7655 128.871 74.4819 128.822 74.1796L128.274 70.0455H115.025L112.784 74.1796C112.608 74.4969 112.371 74.776 112.087 75.0008C111.654 75.3127 111.124 75.4613 110.592 75.4202H103.618C103.153 75.4202 102.871 75.2546 102.771 74.9232C102.697 74.453 102.804 73.9724 103.07 73.5776L120.605 42.1936C120.851 41.7738 121.17 41.4023 121.549 41.0977C122.012 40.7213 122.596 40.5263 123.193 40.5492H131.712ZM119.259 62.3207H127.329L125.834 50.3652L119.259 62.3207Z" fill="#009F3C"/>
<path d="M163.296 40.5491C165.118 40.5342 166.932 40.7948 168.676 41.322C170.215 41.7725 171.641 42.5458 172.858 43.5903C173.989 44.5921 174.823 45.8844 175.27 47.327C175.758 48.9971 175.801 50.7655 175.395 52.4573C175.002 54.6611 174.022 56.7177 172.556 58.4098C171.108 59.9468 169.339 61.1459 167.375 61.922L171.062 73.7726C171.094 73.954 171.094 74.1397 171.062 74.3211C170.993 74.6236 170.826 74.8949 170.588 75.0929C170.364 75.2995 170.071 75.4151 169.767 75.417H163.49C163.246 75.4483 162.999 75.4243 162.766 75.3468C162.533 75.2692 162.321 75.1402 162.144 74.9692C161.929 74.7008 161.76 74.3976 161.646 74.0725L158.413 63.4112H153.332L151.045 74.0767C150.972 74.4498 150.769 74.7846 150.471 75.0206C150.191 75.273 149.828 75.4147 149.451 75.4191H142.926C142.759 75.4257 142.593 75.3931 142.442 75.3239C142.29 75.2547 142.157 75.1508 142.053 75.0206C141.947 74.8904 141.871 74.7379 141.832 74.5744C141.794 74.4109 141.792 74.2408 141.829 74.0767L148.703 41.8967C148.775 41.5236 148.979 41.1887 149.277 40.9528C149.557 40.6999 149.92 40.5579 150.298 40.5533L163.296 40.5491ZM154.977 55.6507H160.606C161.864 55.681 163.112 55.4076 164.242 54.8536C164.774 54.5579 165.231 54.1431 165.577 53.6418C165.922 53.1404 166.147 52.566 166.234 51.9633C166.499 50.5692 166.234 49.6065 165.437 49.0752C164.443 48.4928 163.3 48.2156 162.15 48.2781H156.52L154.977 55.6507Z" fill="#009F3C"/>
<path d="M208.576 40.5491C208.742 40.5429 208.908 40.5759 209.059 40.6453C209.211 40.7147 209.344 40.8185 209.448 40.9486C209.554 41.0789 209.629 41.2315 209.668 41.3949C209.707 41.5583 209.709 41.7284 209.672 41.8925L208.526 47.1728C208.451 47.5507 208.238 47.8872 207.928 48.1166C207.637 48.3686 207.265 48.51 206.88 48.5162H198.112L192.683 74.0704C192.611 74.4434 192.408 74.7782 192.111 75.0143C191.83 75.2667 191.467 75.4084 191.089 75.4128H184.565C184.399 75.4195 184.233 75.387 184.082 75.3177C183.93 75.2485 183.797 75.1445 183.694 75.0143C183.587 74.8842 183.512 74.7317 183.473 74.5682C183.434 74.4047 183.433 74.2345 183.469 74.0704L188.899 48.5193H180.132C179.969 48.5275 179.806 48.4953 179.658 48.4256C179.51 48.3559 179.381 48.2509 179.284 48.1198C179.185 47.9859 179.116 47.8323 179.082 47.6694C179.048 47.5066 179.049 47.3383 179.085 47.1759L180.231 41.8956C180.303 41.5225 180.506 41.1877 180.804 40.9518C181.085 40.699 181.447 40.557 181.825 40.5522L208.576 40.5491Z" fill="#009F3C"/>
<path d="M229.447 40.5492C231.214 40.5352 232.971 40.8042 234.653 41.3463C236.174 41.8241 237.571 42.632 238.743 43.7122C239.856 44.7602 240.672 46.0836 241.109 47.5484C241.579 49.2306 241.613 51.0048 241.209 52.7039C240.851 54.465 240.23 56.1621 239.366 57.7378C238.593 59.1052 237.54 60.2938 236.276 61.2258C234.909 62.2038 233.359 62.8981 231.719 63.2677C229.684 63.7277 227.602 63.9452 225.517 63.9158H218.642L216.45 74.0779C216.378 74.4509 216.175 74.7857 215.878 75.0218C215.597 75.2741 215.235 75.4158 214.857 75.4203H208.331C208.165 75.427 207.999 75.3945 207.848 75.3252C207.696 75.256 207.563 75.152 207.46 75.0218C207.353 74.8916 207.278 74.7391 207.239 74.5756C207.2 74.4121 207.199 74.242 207.235 74.0779L214.11 41.8979C214.181 41.5249 214.385 41.19 214.682 40.954C214.963 40.7013 215.326 40.5593 215.704 40.5545L229.447 40.5492ZM220.282 56.1437H226.41C227.691 56.173 228.956 55.8548 230.071 55.223C230.605 54.8955 231.061 54.4566 231.409 53.9364C231.758 53.4162 231.989 52.827 232.089 52.2089C232.264 51.6854 232.284 51.1226 232.146 50.588C232.009 50.0535 231.721 49.5697 231.316 49.1949C230.363 48.5287 229.214 48.2038 228.053 48.2731H221.926L220.282 56.1437Z" fill="#009F3C"/>
<path d="M244.69 53.5528C245.177 51.7203 245.888 49.9549 246.807 48.2966C247.712 46.6633 248.911 45.2109 250.343 44.0126C251.883 42.7479 253.638 41.7696 255.524 41.1244C257.796 40.3692 260.18 40.0071 262.573 40.0537C264.6 40.0232 266.614 40.3869 268.502 41.1244C270.155 41.7703 271.655 42.754 272.906 44.0126C274.081 45.2191 274.951 46.6875 275.446 48.2966C275.965 49.9991 276.076 51.7996 275.77 53.5528C275.537 54.9805 275.254 56.4746 274.922 58.0351C274.59 59.5956 274.24 61.0571 273.873 62.4198C273.385 64.2547 272.665 66.0202 271.732 67.6739C269.822 71.0837 266.702 73.6525 262.989 74.8723C260.714 75.6115 258.332 75.966 255.94 75.921C253.915 75.9506 251.903 75.5947 250.012 74.8723C248.355 74.2443 246.858 73.2576 245.628 71.9831C244.468 70.7602 243.606 69.2853 243.111 67.6739C242.592 65.9723 242.481 64.1723 242.787 62.4198C242.986 61.0578 243.259 59.5963 243.608 58.0351C243.957 56.4739 244.318 54.9798 244.69 53.5528ZM264.715 62.1712C264.881 61.5727 265.056 60.9086 265.239 60.1787C265.422 59.4487 265.597 58.7017 265.763 57.9375C265.929 57.1741 266.078 56.4351 266.211 55.7205C266.344 55.006 266.444 54.3666 266.51 53.8024C266.611 53.0405 266.594 52.2677 266.46 51.511C266.341 50.846 266.059 50.2211 265.639 49.6925C265.191 49.1544 264.618 48.735 263.97 48.4718C263.146 48.15 262.265 47.9977 261.38 48.024C260.439 48.009 259.503 48.1606 258.614 48.4718C257.829 48.7551 257.097 49.1677 256.448 49.6925C255.818 50.2053 255.28 50.82 254.854 51.511C254.415 52.2239 254.08 52.9954 253.857 53.8024C253.691 54.368 253.516 55.0074 253.333 55.7205C253.15 56.4337 252.975 57.1727 252.809 57.9375C252.642 58.701 252.493 59.448 252.361 60.1787C252.229 60.9093 252.129 61.5734 252.062 62.1712C251.814 63.6068 252.117 65.0828 252.909 66.3053C253.672 67.4009 255.083 67.9486 257.143 67.9486C258.951 68.0456 260.73 67.459 262.125 66.3053C263.36 65.1981 264.257 63.7653 264.715 62.1712Z" fill="#009F3C"/>
<path d="M296.895 40.0528C298.753 40.0302 300.6 40.3421 302.348 40.9735C303.873 41.5218 305.296 42.3218 306.557 43.3405C307.64 44.2074 308.538 45.283 309.197 46.5035C309.768 47.5294 310.044 48.6929 309.994 49.8657C309.923 50.1732 309.747 50.4464 309.496 50.6386C309.277 50.8363 308.995 50.9509 308.699 50.9626H302.174C301.806 50.9822 301.439 50.9139 301.103 50.7634C300.818 50.603 300.558 50.4016 300.331 50.1656C300.186 50.01 300.053 49.8435 299.933 49.6675C299.721 49.3911 299.469 49.148 299.185 48.9459C298.775 48.6583 298.32 48.4394 297.84 48.2978C297.144 48.0977 296.422 48.0053 295.698 48.0241C295.082 48.0237 294.466 48.0654 293.855 48.1489C293.294 48.2236 292.743 48.3572 292.21 48.5474C291.744 48.7108 291.319 48.9746 290.965 49.3203C290.628 49.6607 290.403 50.095 290.317 50.5662C290.263 50.7803 290.252 51.0034 290.286 51.2217C290.321 51.44 290.399 51.6491 290.516 51.8362C290.876 52.2792 291.349 52.6154 291.886 52.8084C292.789 53.1782 293.723 53.4698 294.676 53.6799C295.854 53.9595 297.322 54.2832 299.08 54.651C302.566 55.4151 305.04 56.6439 306.502 58.3372C307.964 60.0306 308.363 62.4384 307.698 65.5608C307.392 67.1562 306.752 68.669 305.821 69.9997C304.889 71.3305 303.687 72.4493 302.293 73.2826C299.419 75.043 295.492 75.9229 290.512 75.9222C288.622 75.9398 286.743 75.6366 284.954 75.0256C283.367 74.4934 281.879 73.7025 280.549 72.6848C279.38 71.7927 278.412 70.6638 277.709 69.3719C277.067 68.2272 276.773 66.9197 276.863 65.6101C276.935 65.3031 277.11 65.0303 277.36 64.8383C277.58 64.6404 277.862 64.5258 278.157 64.5142H284.691C285.056 64.4966 285.421 64.5559 285.762 64.6883C286.021 64.8131 286.25 64.9919 286.434 65.2127C286.615 65.4109 286.774 65.6282 286.908 65.8608C287.138 66.2121 287.424 66.5235 287.754 66.7826C288.211 67.139 288.725 67.4166 289.274 67.6038C290.061 67.8597 290.887 67.9774 291.715 67.9519C293.246 67.9824 294.774 67.7891 296.249 67.3783C296.778 67.2763 297.268 67.0288 297.663 66.6636C298.059 66.2985 298.346 65.8301 298.49 65.3112C298.545 65.0853 298.539 64.849 298.473 64.6261C298.407 64.4031 298.284 64.2014 298.116 64.0412C297.601 63.5971 296.998 63.2659 296.347 63.0691C295.312 62.7133 294.256 62.4219 293.184 62.1965C291.905 61.9169 290.402 61.5764 288.675 61.1751C285.42 60.4452 283.186 59.1668 281.975 57.3399C280.763 55.513 280.473 53.1709 281.103 50.3135C281.4 48.8913 281.948 47.5336 282.722 46.3042C283.536 45.0231 284.594 43.9146 285.836 43.0416C287.261 42.0505 288.845 41.3093 290.519 40.8498C292.596 40.2858 294.743 40.0175 296.895 40.0528Z" fill="#009F3C"/>
</svg>
